<svg xmlns="http://www.w3.org/2000/svg" preserveAspectRatio="xMidYMid" width="55" height="53"><path d="M45.597 31.79c-.062.04-.121.082-.191.108l-.071.041 9.664 5.453L27.5 53.005.001 37.392l9.664-5.453-9.664-5.487 9.664-5.454-9.664-5.486L27.5-.006l27.498 15.518-9.664 5.486 9.664 5.454-9.401 5.338zM4.045 37.397l23.454 13.317 23.455-13.317-7.639-4.312L27.5 42.064l-15.816-8.979-7.639 4.312zm46.91-21.88L27.5 2.28 4.045 15.517l23.456 13.317 15.811-8.977 7.643-4.34zm-7.64 6.627l-.321.182a.989.989 0 0 1-.938.691c-.072 0-.136-.026-.205-.041l-2.203 1.251a.972.972 0 0 1 .406.779.997.997 0 0 1-1.001.994.988.988 0 0 1-.978-.88l-10.06 5.712c.008.048.029.091.029.142a.998.998 0 0 1-1 .995.998.998 0 0 1-1.001-.995c0-.214.082-.402.198-.564l-10.338-5.87a.967.967 0 0 1 .132.467.998.998 0 0 1-1.001.994.997.997 0 0 1-1.001-.994c0-.533.424-.961.955-.986l-2.264-1.285a.995.995 0 0 1-.693.282.994.994 0 0 1-.892-.564l-7.095 4.004 1.36.772a.979.979 0 0 1 .622-.234c.552 0 1 .445 1 .994 0 .051-.022.095-.029.144l10.062 5.711a.99.99 0 0 1 .978-.882.998.998 0 0 1 1.001.995.974.974 0 0 1-.407.779l2.203 1.251c.068-.015.133-.042.206-.042.445 0 .809.293.939.692l5.522 3.135 4.594-2.608c-.018-.075-.046-.145-.046-.225a.997.997 0 0 1 1.695-.712l2.265-1.286a.992.992 0 0 1-.958-.985.998.998 0 0 1 1.001-.995.999.999 0 0 1 1.001.995.952.952 0 0 1-.135.469l6.394-3.63 3.948-2.242a.965.965 0 0 1-.199-.565.997.997 0 0 1 1.909-.406l1.985-1.127-7.64-4.312zm1.743 3.857a.997.997 0 0 1-1.001-.994c0-.55.448-.995 1.001-.995a.998.998 0 0 1 1.001.995.997.997 0 0 1-1.001.994zm-3.002 2.984a.998.998 0 0 1-1.001-.995.997.997 0 0 1 1.001-.994.998.998 0 0 1 1.001.994c0 .55-.449.995-1.001.995zm-3.003 2.984a.999.999 0 0 1-1.001-.995.999.999 0 0 1 1.001-.995.998.998 0 0 1 1.001.995.998.998 0 0 1-1.001.995zm-3.002-2.984a.998.998 0 0 1-1.001-.995.997.997 0 0 1 1.001-.994.997.997 0 0 1 1.001.994c0 .55-.448.995-1.001.995zm-3.003 2.984c-.552 0-1-.446-1-.995a.998.998 0 0 1 1-.995.998.998 0 0 1 1.001.995.998.998 0 0 1-1.001.995zm-3.002 2.983a.997.997 0 0 1-1.001-.994c0-.55.448-.995 1.001-.995a.998.998 0 0 1 1.001.995.997.997 0 0 1-1.001.994zm-3.002 2.984a.998.998 0 0 1-1.001-.995.997.997 0 0 1 1.001-.994c.552 0 1 .445 1 .994 0 .55-.448.995-1 .995zm-3.003-2.984a.997.997 0 0 1-1.001-.994c0-.55.448-.995 1.001-.995a.998.998 0 0 1 1.001.995.997.997 0 0 1-1.001.994zm-3.002-2.983a.998.998 0 0 1-1.001-.995.998.998 0 0 1 1.001-.995.999.999 0 0 1 1.001.995.999.999 0 0 1-1.001.995zm-3.003-2.984c-.552 0-1-.445-1-.995a.997.997 0 0 1 1-.994.997.997 0 0 1 1.001.994c0 .55-.448.995-1.001.995zm-3.002 2.984a.998.998 0 0 1-1.001-.995.998.998 0 0 1 1.001-.995.998.998 0 0 1 1.001.995.998.998 0 0 1-1.001.995zm-3.003-2.984c-.552 0-1-.445-1-.995a.997.997 0 0 1 1-.994.997.997 0 0 1 1.001.994c0 .55-.448.995-1.001.995zm-3.002-2.984a.997.997 0 0 1-1.001-.994c0-.55.448-.995 1.001-.995a.998.998 0 0 1 1.001.995.997.997 0 0 1-1.001.994z" fill-rule="evenodd"/></svg>