<svg xmlns="http://www.w3.org/2000/svg" preserveAspectRatio="xMidYMid" width="76" height="13"><path d="M75.792 5.43l-2.905 2.899.689 4.096c.005.038.008.093.008.164a.49.49 0 0 1-.084.29.28.28 0 0 1-.244.119.639.639 0 0 1-.32-.098l-3.593-1.933L65.75 12.9a.672.672 0 0 1-.32.098c-.112 0-.196-.04-.252-.119a.49.49 0 0 1-.084-.29c0-.033.005-.088.016-.164l.688-4.096-2.912-2.899c-.134-.147-.201-.279-.201-.393 0-.202.15-.328.448-.377l4.017-.598L68.951.336c.101-.225.232-.336.392-.336s.291.111.392.336l1.8 3.726 4.017.598c.299.049.448.175.448.377 0 .12-.069.251-.208.393zM57.355 8.329l.688 4.096c.005.038.008.093.008.164a.49.49 0 0 1-.084.29.278.278 0 0 1-.244.119.642.642 0 0 1-.32-.098l-3.593-1.933-3.593 1.933a.672.672 0 0 1-.32.098c-.112 0-.196-.04-.252-.119a.49.49 0 0 1-.084-.29c0-.033.006-.088.016-.164l.688-4.096-2.912-2.899c-.134-.147-.2-.279-.2-.393 0-.202.149-.328.448-.377l4.017-.598 1.8-3.726C53.519.111 53.65 0 53.81 0s.291.111.392.336l1.8 3.726 4.017.598c.299.049.448.175.448.377 0 .12-.069.251-.208.393l-2.904 2.899zm-15.533 0l.688 4.096c.005.038.008.093.008.164a.49.49 0 0 1-.084.29.278.278 0 0 1-.244.119.642.642 0 0 1-.32-.098l-3.593-1.933-3.593 1.933a.672.672 0 0 1-.32.098c-.112 0-.196-.04-.252-.119a.49.49 0 0 1-.084-.29c0-.033.006-.088.016-.164l.688-4.096L31.82 5.43c-.133-.147-.2-.279-.2-.393 0-.202.149-.328.448-.377l4.017-.598 1.8-3.726c.101-.225.232-.336.392-.336s.291.111.392.336l1.8 3.726 4.017.598c.299.049.448.175.448.377 0 .12-.069.251-.208.393l-2.904 2.899zm-16.088 0l.688 4.096c.006.038.008.093.008.164a.49.49 0 0 1-.084.29.278.278 0 0 1-.244.119.642.642 0 0 1-.32-.098l-3.593-1.933-3.592 1.933a.675.675 0 0 1-.32.098c-.112 0-.196-.04-.252-.119a.49.49 0 0 1-.084-.29c0-.033.005-.088.016-.164l.688-4.096-2.913-2.899c-.133-.147-.2-.279-.2-.393 0-.202.15-.328.448-.377l4.017-.598 1.8-3.726C21.899.111 22.03 0 22.19 0c.159 0 .29.111.392.336l1.8 3.726 4.016.598c.3.049.449.175.449.377 0 .12-.069.251-.208.393l-2.905 2.899zm-15.533 0l.688 4.096c.006.038.009.093.009.164a.49.49 0 0 1-.084.29.28.28 0 0 1-.245.119.645.645 0 0 1-.32-.098l-3.592-1.933L3.064 12.9a.672.672 0 0 1-.32.098c-.112 0-.196-.04-.252-.119a.49.49 0 0 1-.084-.29c0-.033.005-.088.016-.164l.688-4.096L.199 5.43c-.133-.147-.2-.279-.2-.393 0-.202.15-.328.448-.377l4.017-.598L6.265.336C6.366.111 6.497 0 6.657 0s.29.111.392.336l1.8 3.726 4.017.598c.299.049.448.175.448.377 0 .12-.069.251-.208.393l-2.905 2.899z" fill="#f7cd07" fill-rule="evenodd"/></svg>