<svg xmlns="http://www.w3.org/2000/svg" preserveAspectRatio="xMidYMid" width="49" height="59"><path d="M38.107 49.938h2.866c4.135 0 7.582 3.124 8.018 7.267.048.459-.099.919-.404 1.261a1.597 1.597 0 0 1-1.188.534H1.601c-.472 0-.917-.209-1.222-.573a1.632 1.632 0 0 1-.355-1.324 5.649 5.649 0 0 1 5.379-4.728 8.893 8.893 0 0 1 6.852-3.261c1.688 0 3.308.477 4.708 1.364V39.607c-.707.124-1.427.187-2.158.187-6.882 0-12.481-5.648-12.481-12.59 0-1.621.3-3.194.892-4.682a12.304 12.304 0 0 1-1.753-6.348c0-6.767 5.458-12.272 12.166-12.272.661 0 1.321.054 1.972.161A12.08 12.08 0 0 1 24.644 0c3.469 0 6.734 1.474 9.043 4.062.65-.106 1.311-.161 1.971-.161 6.708 0 12.166 5.506 12.166 12.273 0 2.252-.605 4.435-1.753 6.348.592 1.487.892 3.06.892 4.682 0 6.942-5.598 12.59-12.48 12.59h-2.158v7.74a10.308 10.308 0 0 1 5.782 2.404zm-5.782 7.206H47.13c-.448-3.068-3.051-5.351-6.157-5.351-.802 0-1.584.153-2.326.455a.914.914 0 0 1-1.007-.218 8.542 8.542 0 0 0-5.315-2.633v7.747zm-6.596 0h4.756V39.135c-.408-.14-.811-.301-1.207-.485a17.684 17.684 0 0 1-4.634.616c-1.571 0-3.128-.207-4.635-.616-.396.183-.799.345-1.207.485v12.138c.082-.003.164-.005.247-.005 3.407 0 6.23 2.562 6.68 5.876zm-13.474-6.175a7.055 7.055 0 0 0-5.667 2.888.917.917 0 0 1-.789.375 3.806 3.806 0 0 0-3.906 2.912h21.975c-.432-2.287-2.429-4.021-4.82-4.021-.346 0-.696.038-1.038.112a.913.913 0 0 1-.836-.243 6.974 6.974 0 0 0-4.919-2.023zm22.228-13.03c5.867 0 10.641-4.816 10.641-10.735 0-1.528-.312-3.005-.927-4.388a.935.935 0 0 1 .073-.892 10.435 10.435 0 0 0 1.715-5.75c0-5.744-4.633-10.417-10.327-10.417-.718 0-1.435.075-2.134.223a.914.914 0 0 1-.899-.319 10.265 10.265 0 0 0-7.981-3.806 10.26 10.26 0 0 0-7.981 3.807.917.917 0 0 1-.899.318 10.325 10.325 0 0 0-2.135-.223c-5.694 0-10.326 4.673-10.326 10.417 0 2.055.593 4.044 1.715 5.75a.935.935 0 0 1 .072.892 10.732 10.732 0 0 0-.927 4.388c0 5.919 4.774 10.735 10.642 10.735a10.46 10.46 0 0 0 4.712-1.108.913.913 0 0 1 .665-.059c1.445.423 2.946.638 4.462.638 1.515 0 3.017-.215 4.461-.638a.908.908 0 0 1 .665.059 10.465 10.465 0 0 0 4.713 1.108zm-12.62 3.95c.508 0 .92.416.92.928v3.134a.924.924 0 0 1-.92.927.924.924 0 0 1-.92-.927v-3.134c0-.512.412-.928.92-.928zm5.128 4.041c.508 0 .92.415.92.928v5.194a.924.924 0 0 1-.92.928.924.924 0 0 1-.919-.928v-5.194c0-.513.412-.928.919-.928z" fill-rule="evenodd"/></svg>